<svg width="417" height="66" viewBox="0 0 417 66" fill="none" xmlns="http://www.w3.org/2000/svg">
<path d="M32.1139 0.000625172C25.7 0.0805407 19.4529 2.05558 14.1587 5.67715C8.8645 9.29872 4.75965 14.4052 2.36043 20.354C-0.0387903 26.3028 -0.625108 32.8281 0.675203 39.1094C1.97551 45.3906 5.10428 51.1469 9.66809 55.6543C14.2319 60.1616 20.0268 63.2187 26.3237 64.4407C32.6206 65.6628 39.1384 64.9952 45.0569 62.5221C50.9753 60.049 56.0302 55.8809 59.5856 50.542C63.141 45.2031 65.038 38.932 65.0381 32.5176C64.9837 23.8397 61.4844 15.5388 55.31 9.44074C49.1356 3.34272 40.7919 -0.0529808 32.1139 0.000625172Z" fill="#00EDBE"/>
<path d="M47.6644 20.6419C47.5763 19.0159 47.973 17.4003 48.8041 16H22.2636C22.0258 15.9992 21.7901 16.0452 21.57 16.1354C21.3499 16.2256 21.1498 16.3583 20.981 16.5259C20.8122 16.6935 20.6781 16.8927 20.5862 17.1121C20.4944 17.3315 20.4467 17.5669 20.4459 17.8048V23.4779C20.4467 23.7158 20.4944 23.9511 20.5862 24.1706C20.6781 24.39 20.8122 24.5892 20.981 24.7568C21.1498 24.9243 21.3499 25.0571 21.57 25.1473C21.7901 25.2375 22.0258 25.2835 22.2636 25.2827H48.8041C47.973 23.8823 47.5763 22.2668 47.6644 20.6408" fill="#141BEB"/>
<path d="M16.3099 32.7573C16.3965 34.3834 15.9984 35.9985 15.166 37.3981H41.7064C41.9443 37.3989 42.1799 37.3529 42.4 37.2627C42.6201 37.1725 42.8202 37.0398 42.989 36.8722C43.1578 36.7046 43.292 36.5054 43.3838 36.286C43.4756 36.0665 43.5233 35.8312 43.5241 35.5933V29.9202C43.5233 29.6823 43.4756 29.447 43.3838 29.2275C43.292 29.0081 43.1578 28.8089 42.989 28.6413C42.8202 28.4737 42.6201 28.341 42.4 28.2508C42.1799 28.1606 41.9443 28.1146 41.7064 28.1154H15.166C15.9971 29.5158 16.3937 31.1313 16.3056 32.7573" fill="#141BEB"/>
<path d="M47.6644 44.8717C47.5763 43.2457 47.973 41.6301 48.8041 40.2298H22.2636C22.0258 40.229 21.7901 40.275 21.57 40.3652C21.3499 40.4554 21.1498 40.5881 20.981 40.7557C20.8122 40.9233 20.6781 41.1225 20.5862 41.3419C20.4944 41.5613 20.4467 41.7967 20.4459 42.0345V47.7077C20.4467 47.9456 20.4944 48.1809 20.5862 48.4003C20.6781 48.6198 20.8122 48.819 20.981 48.9866C21.1498 49.1541 21.3499 49.2868 21.57 49.3771C21.7901 49.4673 22.0258 49.5133 22.2636 49.5125H48.8041C47.973 48.1121 47.5763 46.4966 47.6644 44.8706" fill="#141BEB"/>
<path d="M107.272 50.48C103.752 50.48 100.68 49.808 98.056 48.464C95.448 47.12 93.424 45.096 91.984 42.392C90.544 39.688 89.824 36.304 89.824 32.24C89.824 28.176 90.544 24.792 91.984 22.088C93.424 19.384 95.448 17.36 98.056 16.016C100.68 14.672 103.752 14 107.272 14C110.808 14 113.88 14.68 116.488 16.04C119.112 17.384 121.144 19.408 122.584 22.112C124.024 24.816 124.744 28.192 124.744 32.24C124.744 36.288 124.024 39.664 122.584 42.368C121.144 45.072 119.112 47.104 116.488 48.464C113.864 49.808 110.792 50.48 107.272 50.48ZM107.272 43.088C108.984 43.088 110.432 42.72 111.616 41.984C112.816 41.248 113.728 40.096 114.352 38.528C114.976 36.96 115.288 34.92 115.288 32.408C115.288 29.784 114.968 27.664 114.328 26.048C113.704 24.432 112.792 23.256 111.592 22.52C110.392 21.768 108.952 21.392 107.272 21.392C105.592 21.392 104.152 21.76 102.952 22.496C101.768 23.216 100.856 24.36 100.216 25.928C99.576 27.496 99.256 29.544 99.256 32.072C99.256 34.712 99.568 36.84 100.192 38.456C100.832 40.072 101.744 41.248 102.928 41.984C104.128 42.72 105.576 43.088 107.272 43.088ZM129.099 60.56V23.672H136.683L137.211 26.456H137.619C138.355 25.48 139.299 24.704 140.451 24.128C141.619 23.536 142.971 23.24 144.507 23.24C146.475 23.24 148.291 23.688 149.955 24.584C151.619 25.48 152.955 26.896 153.963 28.832C154.971 30.752 155.475 33.248 155.475 36.32C155.475 39.344 154.915 41.912 153.795 44.024C152.691 46.136 151.043 47.744 148.851 48.848C146.659 49.952 143.955 50.504 140.739 50.504C140.275 50.504 139.819 50.488 139.371 50.456C138.939 50.424 138.523 50.392 138.123 50.36V60.56H129.099ZM140.715 43.712C142.619 43.712 144.043 43.208 144.987 42.2C145.931 41.176 146.403 39.448 146.403 37.016C146.403 35.336 146.211 34.032 145.827 33.104C145.443 32.176 144.899 31.52 144.195 31.136C143.507 30.752 142.699 30.56 141.771 30.56C141.115 30.56 140.459 30.664 139.803 30.872C139.163 31.064 138.603 31.384 138.123 31.832V43.472C138.491 43.52 138.907 43.576 139.371 43.64C139.835 43.688 140.283 43.712 140.715 43.712ZM174.054 50.504C170.534 50.504 167.654 50.032 165.414 49.088C163.174 48.128 161.518 46.64 160.446 44.624C159.39 42.608 158.862 40 158.862 36.8C158.862 33.968 159.35 31.536 160.326 29.504C161.318 27.472 162.766 25.92 164.67 24.848C166.574 23.776 168.902 23.24 171.654 23.24C174.278 23.24 176.47 23.784 178.23 24.872C179.99 25.944 181.31 27.52 182.19 29.6C183.086 31.664 183.534 34.168 183.534 37.112V39.392H164.046V34.328H176.526L175.182 34.76C175.182 33.288 175.054 32.12 174.798 31.256C174.542 30.376 174.142 29.76 173.598 29.408C173.054 29.04 172.374 28.856 171.558 28.856C170.726 28.856 170.038 29.04 169.494 29.408C168.95 29.76 168.542 30.368 168.27 31.232C167.998 32.096 167.862 33.264 167.862 34.736V38.432C167.862 39.76 168.062 40.816 168.462 41.6C168.878 42.368 169.622 42.92 170.694 43.256C171.782 43.592 173.334 43.76 175.35 43.76C176.39 43.76 177.478 43.696 178.614 43.568C179.766 43.424 180.902 43.24 182.022 43.016V49.688C180.582 49.976 179.214 50.184 177.918 50.312C176.622 50.44 175.334 50.504 174.054 50.504ZM187.318 50V23.672H194.758L195.358 26.24H195.742C196.686 25.264 197.798 24.52 199.078 24.008C200.358 23.496 201.758 23.24 203.278 23.24C205.038 23.24 206.606 23.6 207.982 24.32C209.374 25.024 210.462 26.168 211.246 27.752C212.046 29.32 212.446 31.384 212.446 33.944V50H203.398V34.52C203.398 33.176 203.126 32.256 202.582 31.76C202.054 31.248 201.302 30.992 200.326 30.992C199.83 30.992 199.334 31.056 198.838 31.184C198.358 31.296 197.902 31.48 197.47 31.736C197.038 31.976 196.662 32.28 196.342 32.648V50H187.318ZM248.247 50.48C245.127 50.48 242.359 50.128 239.943 49.424C237.543 48.704 235.519 47.608 233.871 46.136C232.223 44.648 230.975 42.76 230.127 40.472C229.279 38.184 228.855 35.472 228.855 32.336C228.855 28.336 229.615 24.976 231.135 22.256C232.671 19.536 234.911 17.48 237.855 16.088C240.799 14.696 244.391 14 248.631 14C249.975 14 251.279 14.064 252.543 14.192C253.823 14.32 255.063 14.52 256.263 14.792V22.328C255.175 22.088 254.063 21.904 252.927 21.776C251.807 21.648 250.639 21.584 249.423 21.584C246.927 21.584 244.871 21.952 243.255 22.688C241.639 23.408 240.439 24.552 239.655 26.12C238.887 27.688 238.503 29.728 238.503 32.24C238.503 34.8 238.887 36.864 239.655 38.432C240.423 39.984 241.591 41.12 243.159 41.84C244.743 42.544 246.743 42.896 249.159 42.896C250.343 42.896 251.527 42.808 252.711 42.632C253.911 42.44 255.095 42.184 256.263 41.864V49.376C255.143 49.712 253.879 49.976 252.471 50.168C251.079 50.376 249.671 50.48 248.247 50.48ZM267.461 50.504C264.693 50.504 262.541 49.784 261.005 48.344C259.485 46.888 258.725 45.016 258.725 42.728C258.725 40.184 259.621 38.192 261.413 36.752C263.205 35.312 266.117 34.472 270.149 34.232L275.141 33.896L276.149 38.744L271.133 39.08C269.885 39.16 268.981 39.44 268.421 39.92C267.861 40.384 267.581 41.024 267.581 41.84C267.581 42.624 267.829 43.232 268.325 43.664C268.837 44.096 269.565 44.312 270.509 44.312C271.053 44.312 271.613 44.232 272.189 44.072C272.781 43.912 273.325 43.632 273.821 43.232V34.304C273.821 33.248 273.645 32.408 273.293 31.784C272.941 31.16 272.349 30.712 271.517 30.44C270.685 30.168 269.557 30.032 268.133 30.032C267.109 30.032 265.949 30.12 264.653 30.296C263.373 30.456 262.149 30.704 260.981 31.04V24.344C262.341 23.976 263.813 23.704 265.397 23.528C266.981 23.336 268.453 23.24 269.813 23.24C272.805 23.24 275.245 23.608 277.133 24.344C279.021 25.064 280.405 26.28 281.285 27.992C282.181 29.688 282.629 31.992 282.629 34.904V50H275.237L274.613 47.48H274.205C273.453 48.552 272.485 49.328 271.301 49.808C270.133 50.272 268.853 50.504 267.461 50.504ZM287.584 50V23.672H295.024L295.624 26.24H296.008C296.92 25.264 297.984 24.52 299.2 24.008C300.416 23.496 301.784 23.24 303.304 23.24C304.904 23.24 306.336 23.592 307.6 24.296C308.88 24.984 309.888 26.096 310.624 27.632C311.376 29.152 311.752 31.168 311.752 33.68V50H302.896V34.496C302.896 33.152 302.656 32.232 302.176 31.736C301.696 31.24 301.032 30.992 300.184 30.992C299.72 30.992 299.264 31.056 298.816 31.184C298.384 31.312 297.976 31.504 297.592 31.76C297.208 32 296.88 32.296 296.608 32.648V50H287.584ZM317.848 50V34.496C317.848 33.152 317.584 32.232 317.056 31.736C316.528 31.24 315.84 30.992 314.992 30.992C314.496 30.992 314.016 31.056 313.552 31.184C313.088 31.312 312.664 31.512 312.28 31.784C311.896 32.04 311.56 32.36 311.272 32.744L309.52 27.104C310.672 25.76 311.968 24.784 313.408 24.176C314.864 23.552 316.344 23.24 317.848 23.24C319.592 23.24 321.144 23.6 322.504 24.32C323.864 25.024 324.928 26.168 325.696 27.752C326.48 29.32 326.872 31.4 326.872 33.992V50H317.848ZM331.834 60.56V23.672H339.418L339.946 26.456H340.354C341.09 25.48 342.034 24.704 343.186 24.128C344.354 23.536 345.706 23.24 347.242 23.24C349.21 23.24 351.026 23.688 352.69 24.584C354.354 25.48 355.69 26.896 356.698 28.832C357.706 30.752 358.21 33.248 358.21 36.32C358.21 39.344 357.65 41.912 356.53 44.024C355.426 46.136 353.778 47.744 351.586 48.848C349.394 49.952 346.69 50.504 343.474 50.504C343.01 50.504 342.554 50.488 342.106 50.456C341.674 50.424 341.258 50.392 340.858 50.36V60.56H331.834ZM343.45 43.712C345.354 43.712 346.778 43.208 347.722 42.2C348.666 41.176 349.138 39.448 349.138 37.016C349.138 35.336 348.946 34.032 348.562 33.104C348.178 32.176 347.634 31.52 346.93 31.136C346.242 30.752 345.434 30.56 344.506 30.56C343.85 30.56 343.194 30.664 342.538 30.872C341.898 31.064 341.338 31.384 340.858 31.832V43.472C341.226 43.52 341.642 43.576 342.106 43.64C342.57 43.688 343.018 43.712 343.45 43.712ZM371.329 50.456C369.537 50.456 367.937 50.104 366.529 49.4C365.137 48.68 364.041 47.544 363.241 45.992C362.441 44.424 362.041 42.36 362.041 39.8V23.672H371.065V39.152C371.065 40.496 371.337 41.424 371.881 41.936C372.425 42.448 373.137 42.704 374.017 42.704C374.481 42.704 374.953 42.64 375.433 42.512C375.913 42.384 376.369 42.2 376.801 41.96C377.233 41.704 377.601 41.4 377.905 41.048V23.672H386.953V50H379.513L378.913 47.432H378.553C377.593 48.424 376.497 49.176 375.265 49.688C374.049 50.2 372.737 50.456 371.329 50.456ZM400.348 50.504C398.764 50.504 397.22 50.4 395.716 50.192C394.212 50 392.812 49.712 391.516 49.328V42.8C392.796 43.184 394.18 43.488 395.668 43.712C397.156 43.92 398.66 44.024 400.18 44.024C401.732 44.024 402.804 43.848 403.396 43.496C403.988 43.144 404.284 42.672 404.284 42.08C404.284 41.616 404.156 41.272 403.9 41.048C403.644 40.808 403.18 40.624 402.508 40.496L397.972 39.704C395.476 39.256 393.644 38.4 392.476 37.136C391.324 35.856 390.748 34.128 390.748 31.952C390.748 29.312 391.82 27.2 393.964 25.616C396.124 24.032 399.42 23.24 403.852 23.24C405.196 23.24 406.508 23.32 407.788 23.48C409.068 23.624 410.196 23.832 411.172 24.104V30.632C410.164 30.344 409.052 30.128 407.836 29.984C406.62 29.824 405.38 29.744 404.116 29.744C402.74 29.744 401.692 29.84 400.972 30.032C400.252 30.224 399.756 30.472 399.484 30.776C399.228 31.08 399.1 31.408 399.1 31.76C399.1 32.144 399.236 32.456 399.508 32.696C399.78 32.936 400.244 33.12 400.9 33.248L405.436 34.04C407.74 34.456 409.516 35.248 410.764 36.416C412.012 37.568 412.636 39.352 412.636 41.768C412.636 44.472 411.556 46.608 409.396 48.176C407.252 49.728 404.236 50.504 400.348 50.504Z" fill="#141BEB"/>
</svg>
